ARTiCHOKE

SPRiNTER proudly presents

Swamp.Shark.2011.DVDRip.XviD-SPRiNTER

Date: 2011.12 
http://www.imdb.com/title/tt1684927/

Genre: Sci-Fi
Subtitles: n/a

Release notes

Enjoy!

News

We are currently looking for:

Suppliers who can provide pre-retail or retail dvds with decent upload!
50Mbit+ dump providers with 1TB+ free space

sprinter@hush.com

Greetings

NTX FiCO HNR CiNEFiLE AEN HUMANiSM TASTE 0MNiDVD

Details

Format: AVI
Format/Info: Audio Video Interleave
File size: 700 MiB
Duration: 1h 28mn
Overall bit rate mode: Variable
Overall bit rate: 1 102 Kbps
Writing application: VirtualDubMod 1.5.10.2 (build 2540/release)
Writing library: VirtualDubMod build 2540/release

Video
ID: 0
Format: MPEG-4 Visual
Format profile: Advanced Simple@L5
Format settings, BVOP: 2
Format settings, QPel: No
Format settings, GMC: No warppoints
Format settings, Matrix: Default (H.263)
Codec ID: XVID
Codec ID/Hint: XviD
Duration: 1h 28mn
Bit rate: 956 Kbps
Width: 592 pixels
Height: 336 pixels
Display aspect ratio: 16:9
Frame rate: 23.976 fps
Color space: YUV
Chroma subsampling: 4:2:0
Bit depth: 8 bits
Scan type: Progressive
Compression mode: Lossy
Bits/(Pixel*Frame): 0.200
Stream size: 607 MiB (87%)
Writing library: XviD 61

Audio
ID: 1
Format: MPEG Audio
Format version: Version 1
Format profile: Layer 3
Mode: Joint stereo
Mode extension: MS Stereo
Codec ID: 55
Codec ID/Hint: MP3
Duration: 1h 28mn
Bit rate mode: Variable
Bit rate: 133 Kbps
Minimum bit rate: 128 Kbps
Channel(s): 2 channels
Sampling rate: 48.0 KHz
Compression mode: Lossy
Stream size: 84.8 MiB (12%)
Alignment: Aligned on interleaves
Interleave, duration: 24 ms (0.58 video frame)
Interleave, preload duration: 138 ms
Writing library: LAME3.95
Encoding settings: -m j -V 4 -q 3 -lowpass 18 --vbr-old -b 128